<svg width="42" height="42" viewBox="0 0 42 42" fill="none" xmlns="http://www.w3.org/2000/svg">
<path d="M37 0H5C2.24 0 0 2.24 0 5V37C0 39.76 2.24 42 5 42H37C39.76 42 42 39.76 42 37V5C42 2.24 39.76 0 37 0ZM13 16V35H7V16H13ZM7 10.47C7 9.07 8.2 8 10 8C11.8 8 12.93 9.07 13 10.47C13 11.87 11.88 13 10 13C8.2 13 7 11.87 7 10.47ZM35 35H29C29 35 29 25.74 29 25C29 23 28 21 25.5 20.96H25.42C23 20.96 22 23.02 22 25C22 25.91 22 35 22 35H16V16H22V18.56C22 18.56 23.93 16 27.81 16C31.78 16 35 18.73 35 24.26V35Z" fill="#724CF9"/>
</svg>
