<svg width="44" height="44" viewBox="0 0 44 44" fill="none" xmlns="http://www.w3.org/2000/svg">
<path d="M13 0C5.82812 0 0 5.82812 0 13V31C0 38.1719 5.82812 44 13 44H31C38.1719 44 44 38.1719 44 31V13C44 5.82812 38.1719 0 31 0H13ZM34 8C35.1016 8 36 8.89844 36 10C36 11.1016 35.1016 12 34 12C32.8984 12 32 11.1016 32 10C32 8.89844 32.8984 8 34 8ZM22 11C28.0703 11 33 15.9297 33 22C33 28.0703 28.0703 33 22 33C15.9297 33 11 28.0703 11 22C11 15.9297 15.9297 11 22 11ZM22 13C17.0391 13 13 17.0391 13 22C13 26.9609 17.0391 31 22 31C26.9609 31 31 26.9609 31 22C31 17.0391 26.9609 13 22 13Z" fill="#724CF9"/>
</svg>
